<?xml version="1.0" encoding="UTF-8"?>
<svg viewBox="0 0 483 394" xmlns="http://www.w3.org/2000/svg" xmlns:xlink="http://www.w3.org/1999/xlink">
<style>
    @font-face {font-family: "Asap"; src: url("https://data.irozhlas.cz/fonty/Asap-VariableFont_wdth,wght.ttf") format("truetype-variations");} 
    @font-face {font-family: "Noticia Text"; src: url("https://data.irozhlas.cz/fonty/NoticiaText-Regular.ttf") format("truetype-variations"); font-weight: normal; font-style: normal;}
    @font-face {font-family: "Noticia Text"; src: url("https://data.irozhlas.cz/fonty/NoticiaText-Bold.ttf") format("truetype-variations"); font-weight: bold; font-style: normal;}
    .role-axis, .role-mark, .role-axis-label, .role-legend {font-family: "Asap", sans-serif} 
    .mark-group.role-title { font-family: "'Noticia Text'", "Noticia", serif}
    </style>
 <g transform="translate(0)">
  <ns0:rect width="483" height="374" fill="white" xmlns:ns0="http://www.w3.org/2000/svg"/>
  <ns1:g transform="translate(135,65)" fill="none" stroke-miterlimit="10" xmlns:ns1="http://www.w3.org/2000/svg">
   <ns1:g class="mark-group role-frame root" aria-roledescription="group mark container" role="graphics-object">
    <ns1:g transform="translate(0)">
     <ns1:path class="background" d="M0.5,0.5h325v270h-325Z" aria-hidden="true"/>
     <ns1:g>
      <ns1:g class="mark-group role-axis" aria-hidden="true">
       <ns1:g transform="translate(.5 270)">
        <ns1:path class="background" d="M0,0h0v0h0Z" pointer-events="none" aria-hidden="true"/>
        <ns1:g>
         <ns1:g class="mark-rule role-axis-grid" pointer-events="none" stroke="#F1D1BB" stroke-opacity=".6" stroke-width=".5">
          <ns1:line transform="translate(57)" x2="0" y2="-270"/>
          <ns1:line transform="translate(121)" x2="0" y2="-270"/>
          <ns1:line transform="translate(185)" x2="0" y2="-270"/>
          <ns1:line transform="translate(249)" x2="0" y2="-270"/>
          <ns1:line transform="translate(312)" x2="0" y2="-270"/>
         </ns1:g>
        </ns1:g>
        <ns1:path class="foreground" d="" display="none" pointer-events="none" aria-hidden="true"/>
       </ns1:g>
      </ns1:g>
      <ns1:g class="mark-group role-axis" aria-hidden="true">
       <ns1:g transform="translate(.5 .5)">
        <ns1:path class="background" d="M0,0h0v0h0Z" pointer-events="none" aria-hidden="true"/>
        <ns1:g>
         <ns1:g class="mark-rule role-axis-grid" pointer-events="none" stroke="#F1D1BB" stroke-opacity=".6" stroke-width=".5">
          <ns1:line transform="translate(0,8)" x2="325" y2="0"/>
          <ns1:line transform="translate(0,24)" x2="325" y2="0"/>
          <ns1:line transform="translate(0,40)" x2="325" y2="0"/>
          <ns1:line transform="translate(0,56)" x2="325" y2="0"/>
          <ns1:line transform="translate(0,71)" x2="325" y2="0"/>
          <ns1:line transform="translate(0,87)" x2="325" y2="0"/>
          <ns1:line transform="translate(0,103)" x2="325" y2="0"/>
          <ns1:line transform="translate(0,119)" x2="325" y2="0"/>
          <ns1:line transform="translate(0,135)" x2="325" y2="0"/>
          <ns1:line transform="translate(0,151)" x2="325" y2="0"/>
          <ns1:line transform="translate(0,167)" x2="325" y2="0"/>
          <ns1:line transform="translate(0,183)" x2="325" y2="0"/>
          <ns1:line transform="translate(0,199)" x2="325" y2="0"/>
          <ns1:line transform="translate(0,214)" x2="325" y2="0"/>
          <ns1:line transform="translate(0,230)" x2="325" y2="0"/>
          <ns1:line transform="translate(0,246)" x2="325" y2="0"/>
          <ns1:line transform="translate(0,262)" x2="325" y2="0"/>
         </ns1:g>
        </ns1:g>
        <ns1:path class="foreground" d="" display="none" pointer-events="none" aria-hidden="true"/>
       </ns1:g>
      </ns1:g>
      <ns1:g class="mark-group role-axis" aria-label="X-axis titled 'týden v roce' for a linear scale with values from 1 to 52" aria-roledescription="axis" role="graphics-symbol">
       <ns1:g transform="translate(.5 270)" pointer-events="none">
        <ns1:path class="background" d="M0,0h0v0h0Z" aria-hidden="true"/>
        <ns1:g>
         <ns1:g class="mark-rule role-axis-tick" stroke="#F1D1BB" stroke-opacity=".6" stroke-width=".5">
          <ns1:line transform="translate(57)" x2="0" y2="5"/>
          <ns1:line transform="translate(121)" x2="0" y2="5"/>
          <ns1:line transform="translate(185)" x2="0" y2="5"/>
          <ns1:line transform="translate(249)" x2="0" y2="5"/>
          <ns1:line transform="translate(312)" x2="0" y2="5"/>
         </ns1:g>
         <ns1:g class="mark-text role-axis-label" fill="#292829" font-family="Asap" font-size="9px" text-anchor="middle">
          <ns1:text transform="translate(57 14)">10.</ns1:text>
          <ns1:text transform="translate(121 14)">20.</ns1:text>
          <ns1:text transform="translate(185 14)">30.</ns1:text>
          <ns1:text transform="translate(249 14)">40.</ns1:text>
          <ns1:text transform="translate(312 14)">50.</ns1:text>
         </ns1:g>
         <ns1:g class="mark-rule role-axis-domain">
          <ns1:line transform="translate(0)" x2="325" y2="0" stroke="#888" stroke-opacity="0"/>
         </ns1:g>
         <ns1:g class="mark-text role-axis-title">
          <ns1:text transform="translate(162 32)" fill="#000" font-family="Asap" font-size="9px" font-weight="lighter" text-anchor="middle">týden v roce</ns1:text>
         </ns1:g>
        </ns1:g>
        <ns1:path class="foreground" d="" display="none" aria-hidden="true"/>
       </ns1:g>
      </ns1:g>
      <ns1:g class="mark-group role-axis" aria-label="Y-axis for a discrete scale with 17 values: Slunce, seno, jahody, Slunce, seno a pár facek, Slunce, seno, erotika, Na samotě u lesa, Fantomas, ending with Četník a četnice" aria-roledescription="axis" role="graphics-symbol">
       <ns1:g transform="translate(.5 .5)" pointer-events="none">
        <ns1:path class="background" d="M0,0h0v0h0Z" aria-hidden="true"/>
        <ns1:g>
         <ns1:g class="mark-rule role-axis-tick" stroke="#F1D1BB" stroke-opacity=".6" stroke-width=".5">
          <ns1:line transform="translate(0,8)" x2="-5" y2="0"/>
          <ns1:line transform="translate(0,24)" x2="-5" y2="0"/>
          <ns1:line transform="translate(0,40)" x2="-5" y2="0"/>
          <ns1:line transform="translate(0,56)" x2="-5" y2="0"/>
          <ns1:line transform="translate(0,71)" x2="-5" y2="0"/>
          <ns1:line transform="translate(0,87)" x2="-5" y2="0"/>
          <ns1:line transform="translate(0,103)" x2="-5" y2="0"/>
          <ns1:line transform="translate(0,119)" x2="-5" y2="0"/>
          <ns1:line transform="translate(0,135)" x2="-5" y2="0"/>
          <ns1:line transform="translate(0,151)" x2="-5" y2="0"/>
          <ns1:line transform="translate(0,167)" x2="-5" y2="0"/>
          <ns1:line transform="translate(0,183)" x2="-5" y2="0"/>
          <ns1:line transform="translate(0,199)" x2="-5" y2="0"/>
          <ns1:line transform="translate(0,214)" x2="-5" y2="0"/>
          <ns1:line transform="translate(0,230)" x2="-5" y2="0"/>
          <ns1:line transform="translate(0,246)" x2="-5" y2="0"/>
          <ns1:line transform="translate(0,262)" x2="-5" y2="0"/>
         </ns1:g>
         <ns1:g class="mark-text role-axis-label" fill="#292829" font-family="Asap" font-size="9px" text-anchor="end">
          <ns1:text transform="translate(-7 11)">Slunce, seno, jahody</ns1:text>
          <ns1:text transform="translate(-7 27)">Slunce, seno a pár facek</ns1:text>
          <ns1:text transform="translate(-7 43)">Slunce, seno, erotika</ns1:text>
          <ns1:text transform="translate(-7 59)">Na samotě u lesa</ns1:text>
          <ns1:text transform="translate(-7 74)">Fantomas</ns1:text>
          <ns1:text transform="translate(-7 90)">Fantomas se zlobí</ns1:text>
          <ns1:text transform="translate(-7 106)">Fantomas kontra Scotland Yard</ns1:text>
          <ns1:text transform="translate(-7 122)">Hříšný tanec</ns1:text>
          <ns1:text transform="translate(-7,138)">Pomáda</ns1:text>
          <ns1:text transform="translate(-7 154)">Horečka sobotní noci</ns1:text>
          <ns1:text transform="translate(-7 170)">Léto s kovbojem</ns1:text>
          <ns1:text transform="translate(-7 186)">Četník ze St. Tropez</ns1:text>
          <ns1:text transform="translate(-7 202)">Četník v New Yorku</ns1:text>
          <ns1:text transform="translate(-7 217)">Četník se žení</ns1:text>
          <ns1:text transform="translate(-7 233)">Četník ve výslužbě</ns1:text>
          <ns1:text transform="translate(-7 249)">Četník a mimozemšťané</ns1:text>
          <ns1:text transform="translate(-7 265)">Četník a četnice</ns1:text>
         </ns1:g>
         <ns1:g class="mark-rule role-axis-domain">
          <ns1:line transform="translate(0)" x2="0" y2="270" stroke="#888" stroke-opacity="0"/>
         </ns1:g>
        </ns1:g>
        <ns1:path class="foreground" d="" display="none" aria-hidden="true"/>
       </ns1:g>
      </ns1:g>
      <ns1:g class="mark-rect role-mark layer_0_marks" fill="#D5B574" aria-roledescription="rect mark container" role="graphics-object">
       <ns1:path d="M223.0392156862745,0h6.372549019607874v270h-6.372549019607874Z" opacity=".4" aria-label="tyden: 36; tyden2: 37; prazdninovost: nekdy" aria-roledescription="rect mark" role="graphics-symbol"/>
       <ns1:path d="M165.68627450980392,0h57.35294117647058v270h-57.35294117647058Z" opacity=".75" aria-label="tyden: 27; tyden2: 36; prazdninovost: vzdycky" aria-roledescription="rect mark" role="graphics-symbol"/>
       <ns1:path d="M159.31372549019608,0h6.372549019607845v270h-6.372549019607845Z" opacity=".4" aria-label="tyden: 26; tyden2: 27; prazdninovost: nekdy" aria-roledescription="rect mark" role="graphics-symbol"/>
      </ns1:g>
      <ns1:g class="mark-text role-mark layer_1_marks" aria-roledescription="text mark container" role="graphics-object">
       <ns1:text transform="translate(236 17)" fill="#292829" font-family="Asap" font-size="8px" aria-label="tyden: 38" aria-roledescription="text mark" role="graphics-symbol">
        <ns1:tspan>← týdny,</ns1:tspan>
        <ns1:tspan x="0" dy="10">do kterých</ns1:tspan>
        <ns1:tspan x="0" dy="10">zasáhly letní</ns1:tspan>
        <ns1:tspan x="0" dy="10">prázdniny</ns1:tspan>
       </ns1:text>
      </ns1:g>
      <ns1:g class="mark-symbol role-mark layer_2_marks" fill="#D15A41" stroke-width="2" aria-roledescription="symbol mark container" role="graphics-object">
       <ns1:path transform="translate(19 103)" d="M2.795,0A2.795,2.795,0,1,1,-2.795,0A2.795,2.795,0,1,1,2.795,0" opacity=".7" aria-label="tyden: 4; nazev: Fantomas kontra Scotland Yard; len: 1" aria-roledescription="circle" role="graphics-symbol"/>
       <ns1:path transform="translate(319 103)" d="M2.795,0A2.795,2.795,0,1,1,-2.795,0A2.795,2.795,0,1,1,2.795,0" opacity=".7" aria-label="tyden: 51; nazev: Fantomas kontra Scotland Yard; len: 1" aria-roledescription="circle" role="graphics-symbol"/>
       <ns1:path transform="translate(210 119)" d="M3.536,0A3.536,3.536,0,1,1,-3.536,0A3.536,3.536,0,1,1,3.536,0" opacity=".7" aria-label="tyden: 34; nazev: Hříšný tanec; len: 4" aria-roledescription="circle" role="graphics-symbol"/>
       <ns1:path transform="translate(198 7.9)" d="M3.536,0A3.536,3.536,0,1,1,-3.536,0A3.536,3.536,0,1,1,3.536,0" opacity=".7" aria-label="tyden: 32; nazev: Slunce, seno, jahody; len: 4" aria-roledescription="circle" role="graphics-symbol"/>
       <ns1:path transform="translate(204 71)" d="M2.795,0A2.795,2.795,0,1,1,-2.795,0A2.795,2.795,0,1,1,2.795,0" opacity=".7" aria-label="tyden: 33; nazev: Fantomas; len: 1" aria-roledescription="circle" role="graphics-symbol"/>
       <ns1:path transform="translate(325 103)" d="M3.536,0A3.536,3.536,0,1,1,-3.536,0A3.536,3.536,0,1,1,3.536,0" opacity=".7" aria-label="tyden: 52; nazev: Fantomas kontra Scotland Yard; len: 4" aria-roledescription="circle" role="graphics-symbol"/>
       <ns1:path transform="translate(83 103)" d="M2.795,0A2.795,2.795,0,1,1,-2.795,0A2.795,2.795,0,1,1,2.795,0" opacity=".7" aria-label="tyden: 14; nazev: Fantomas kontra Scotland Yard; len: 1" aria-roledescription="circle" role="graphics-symbol"/>
       <ns1:path transform="translate(32 199)" d="M2.795,0A2.795,2.795,0,1,1,-2.795,0A2.795,2.795,0,1,1,2.795,0" opacity=".7" aria-label="tyden: 6; nazev: Četník v New Yorku; len: 1" aria-roledescription="circle" role="graphics-symbol"/>
       <ns1:path transform="translate(166 214)" d="M3.062,0A3.062,3.062,0,1,1,-3.062,0A3.062,3.062,0,1,1,3.062,0" opacity=".7" aria-label="tyden: 27; nazev: Četník se žení; len: 2" aria-roledescription="circle" role="graphics-symbol"/>
       <ns1:path transform="translate(274 183)" d="M2.795,0A2.795,2.795,0,1,1,-2.795,0A2.795,2.795,0,1,1,2.795,0" opacity=".7" aria-label="tyden: 44; nazev: Četník ze St. Tropez; len: 1" aria-roledescription="circle" role="graphics-symbol"/>
       <ns1:path transform="translate(300 230)" d="M2.795,0A2.795,2.795,0,1,1,-2.795,0A2.795,2.795,0,1,1,2.795,0" opacity=".7" aria-label="tyden: 48; nazev: Četník ve výslužbě; len: 1" aria-roledescription="circle" role="graphics-symbol"/>
       <ns1:path transform="translate(261 135)" d="M2.795,0A2.795,2.795,0,1,1,-2.795,0A2.795,2.795,0,1,1,2.795,0" opacity=".7" aria-label="tyden: 42; nazev: Pomáda; len: 1" aria-roledescription="circle" role="graphics-symbol"/>
       <ns1:path transform="translate(13 87)" d="M2.795,0A2.795,2.795,0,1,1,-2.795,0A2.795,2.795,0,1,1,2.795,0" opacity=".7" aria-label="tyden: 3; nazev: Fantomas se zlobí; len: 1" aria-roledescription="circle" role="graphics-symbol"/>
       <ns1:path transform="translate(127 24)" d="M3.062,0A3.062,3.062,0,1,1,-3.062,0A3.062,3.062,0,1,1,3.062,0" opacity=".7" aria-label="tyden: 21; nazev: Slunce, seno a pár facek; len: 2" aria-roledescription="circle" role="graphics-symbol"/>
       <ns1:path transform="translate(185 214)" d="M2.795,0A2.795,2.795,0,1,1,-2.795,0A2.795,2.795,0,1,1,2.795,0" opacity=".7" aria-label="tyden: 30; nazev: Četník se žení; len: 1" aria-roledescription="circle" role="graphics-symbol"/>
       <ns1:path transform="translate(159 135)" d="M2.795,0A2.795,2.795,0,1,1,-2.795,0A2.795,2.795,0,1,1,2.795,0" opacity=".7" aria-label="tyden: 26; nazev: Pomáda; len: 1" aria-roledescription="circle" role="graphics-symbol"/>
       <ns1:path transform="translate(325 56)" d="M5,0A5,5,0,1,1,-5,0A5,5,0,1,1,5,0" opacity=".7" aria-label="tyden: 52; nazev: Na samotě u lesa; len: 12" aria-roledescription="circle" role="graphics-symbol"/>
       <ns1:path transform="translate(19 40)" d="M3.062,0A3.062,3.062,0,1,1,-3.062,0A3.062,3.062,0,1,1,3.062,0" opacity=".7" aria-label="tyden: 4; nazev: Slunce, seno, erotika; len: 2" aria-roledescription="circle" role="graphics-symbol"/>
       <ns1:path transform="translate(312 214)" d="M3.062,0A3.062,3.062,0,1,1,-3.062,0A3.062,3.062,0,1,1,3.062,0" opacity=".7" aria-label="tyden: 50; nazev: Četník se žení; len: 2" aria-roledescription="circle" role="graphics-symbol"/>
       <ns1:path transform="translate(6.4 71)" d="M2.795,0A2.795,2.795,0,1,1,-2.795,0A2.795,2.795,0,1,1,2.795,0" opacity=".7" aria-label="tyden: 2; nazev: Fantomas; len: 1" aria-roledescription="circle" role="graphics-symbol"/>
       <ns1:path transform="translate(57 40)" d="M2.795,0A2.795,2.795,0,1,1,-2.795,0A2.795,2.795,0,1,1,2.795,0" opacity=".7" aria-label="tyden: 10; nazev: Slunce, seno, erotika; len: 1" aria-roledescription="circle" role="graphics-symbol"/>
       <ns1:path transform="translate(89 199)" d="M2.795,0A2.795,2.795,0,1,1,-2.795,0A2.795,2.795,0,1,1,2.795,0" opacity=".7" aria-label="tyden: 15; nazev: Četník v New Yorku; len: 1" aria-roledescription="circle" role="graphics-symbol"/>
       <ns1:path transform="translate(134 103)" d="M3.062,0A3.062,3.062,0,1,1,-3.062,0A3.062,3.062,0,1,1,3.062,0" opacity=".7" aria-label="tyden: 22; nazev: Fantomas kontra Scotland Yard; len: 2" aria-roledescription="circle" role="graphics-symbol"/>
       <ns1:path transform="translate(312 56)" d="M2.795,0A2.795,2.795,0,1,1,-2.795,0A2.795,2.795,0,1,1,2.795,0" opacity=".7" aria-label="tyden: 50; nazev: Na samotě u lesa; len: 1" aria-roledescription="circle" role="graphics-symbol"/>
       <ns1:path transform="translate(210 40)" d="M3.307,0A3.307,3.307,0,1,1,-3.307,0A3.307,3.307,0,1,1,3.307,0" opacity=".7" aria-label="tyden: 34; nazev: Slunce, seno, erotika; len: 3" aria-roledescription="circle" role="graphics-symbol"/>
       <ns1:path transform="translate(325 24)" d="M3.953,0A3.953,3.953,0,1,1,-3.953,0A3.953,3.953,0,1,1,3.953,0" opacity=".7" aria-label="tyden: 52; nazev: Slunce, seno a pár facek; len: 6" aria-roledescription="circle" role="graphics-symbol"/>
       <ns1:path transform="translate(274 167)" d="M2.795,0A2.795,2.795,0,1,1,-2.795,0A2.795,2.795,0,1,1,2.795,0" opacity=".7" aria-label="tyden: 44; nazev: Léto s kovbojem; len: 1" aria-roledescription="circle" role="graphics-symbol"/>
       <ns1:path transform="translate(325 151)" d="M2.795,0A2.795,2.795,0,1,1,-2.795,0A2.795,2.795,0,1,1,2.795,0" opacity=".7" aria-label="tyden: 52; nazev: Horečka sobotní noci; len: 1" aria-roledescription="circle" role="graphics-symbol"/>
       <ns1:path transform="translate(204 7.9)" d="M2.795,0A2.795,2.795,0,1,1,-2.795,0A2.795,2.795,0,1,1,2.795,0" opacity=".7" aria-label="tyden: 33; nazev: Slunce, seno, jahody; len: 1" aria-roledescription="circle" role="graphics-symbol"/>
       <ns1:path transform="translate(121 119)" d="M2.795,0A2.795,2.795,0,1,1,-2.795,0A2.795,2.795,0,1,1,2.795,0" opacity=".7" aria-label="tyden: 20; nazev: Hříšný tanec; len: 1" aria-roledescription="circle" role="graphics-symbol"/>
       <ns1:path transform="translate(210 151)" d="M2.795,0A2.795,2.795,0,1,1,-2.795,0A2.795,2.795,0,1,1,2.795,0" opacity=".7" aria-label="tyden: 34; nazev: Horečka sobotní noci; len: 1" aria-roledescription="circle" role="graphics-symbol"/>
       <ns1:path transform="translate(210 24)" d="M2.795,0A2.795,2.795,0,1,1,-2.795,0A2.795,2.795,0,1,1,2.795,0" opacity=".7" aria-label="tyden: 34; nazev: Slunce, seno a pár facek; len: 1" aria-roledescription="circle" role="graphics-symbol"/>
       <ns1:path transform="translate(249 87)" d="M2.795,0A2.795,2.795,0,1,1,-2.795,0A2.795,2.795,0,1,1,2.795,0" opacity=".7" aria-label="tyden: 40; nazev: Fantomas se zlobí; len: 1" aria-roledescription="circle" role="graphics-symbol"/>
       <ns1:path transform="translate(191 167)" d="M2.795,0A2.795,2.795,0,1,1,-2.795,0A2.795,2.795,0,1,1,2.795,0" opacity=".7" aria-label="tyden: 31; nazev: Léto s kovbojem; len: 1" aria-roledescription="circle" role="graphics-symbol"/>
       <ns1:path transform="translate(249 167)" d="M2.795,0A2.795,2.795,0,1,1,-2.795,0A2.795,2.795,0,1,1,2.795,0" opacity=".7" aria-label="tyden: 40; nazev: Léto s kovbojem; len: 1" aria-roledescription="circle" role="graphics-symbol"/>
       <ns1:path transform="translate(331 56)" d="M2.795,0A2.795,2.795,0,1,1,-2.795,0A2.795,2.795,0,1,1,2.795,0" opacity=".7" aria-label="tyden: 53; nazev: Na samotě u lesa; len: 1" aria-roledescription="circle" role="graphics-symbol"/>
       <ns1:path transform="translate(204 40)" d="M3.062,0A3.062,3.062,0,1,1,-3.062,0A3.062,3.062,0,1,1,3.062,0" opacity=".7" aria-label="tyden: 33; nazev: Slunce, seno, erotika; len: 2" aria-roledescription="circle" role="graphics-symbol"/>
       <ns1:path transform="translate(319 71)" d="M3.062,0A3.062,3.062,0,1,1,-3.062,0A3.062,3.062,0,1,1,3.062,0" opacity=".7" aria-label="tyden: 51; nazev: Fantomas; len: 2" aria-roledescription="circle" role="graphics-symbol"/>
       <ns1:path transform="translate(159 24)" d="M3.062,0A3.062,3.062,0,1,1,-3.062,0A3.062,3.062,0,1,1,3.062,0" opacity=".7" aria-label="tyden: 26; nazev: Slunce, seno a pár facek; len: 2" aria-roledescription="circle" role="graphics-symbol"/>
       <ns1:path transform="translate(255 135)" d="M2.795,0A2.795,2.795,0,1,1,-2.795,0A2.795,2.795,0,1,1,2.795,0" opacity=".7" aria-label="tyden: 41; nazev: Pomáda; len: 1" aria-roledescription="circle" role="graphics-symbol"/>
       <ns1:path transform="translate(178 71)" d="M3.062,0A3.062,3.062,0,1,1,-3.062,0A3.062,3.062,0,1,1,3.062,0" opacity=".7" aria-label="tyden: 29; nazev: Fantomas; len: 2" aria-roledescription="circle" role="graphics-symbol"/>
       <ns1:path transform="translate(185 103)" d="M3.062,0A3.062,3.062,0,1,1,-3.062,0A3.062,3.062,0,1,1,3.062,0" opacity=".7" aria-label="tyden: 30; nazev: Fantomas kontra Scotland Yard; len: 2" aria-roledescription="circle" role="graphics-symbol"/>
       <ns1:path transform="translate(153 7.9)" d="M3.062,0A3.062,3.062,0,1,1,-3.062,0A3.062,3.062,0,1,1,3.062,0" opacity=".7" aria-label="tyden: 25; nazev: Slunce, seno, jahody; len: 2" aria-roledescription="circle" role="graphics-symbol"/>
       <ns1:path transform="translate(76 87)" d="M2.795,0A2.795,2.795,0,1,1,-2.795,0A2.795,2.795,0,1,1,2.795,0" opacity=".7" aria-label="tyden: 13; nazev: Fantomas se zlobí; len: 1" aria-roledescription="circle" role="graphics-symbol"/>
       <ns1:path transform="translate(134 56)" d="M3.307,0A3.307,3.307,0,1,1,-3.307,0A3.307,3.307,0,1,1,3.307,0" opacity=".7" aria-label="tyden: 22; nazev: Na samotě u lesa; len: 3" aria-roledescription="circle" role="graphics-symbol"/>
       <ns1:path transform="translate(210 262)" d="M2.795,0A2.795,2.795,0,1,1,-2.795,0A2.795,2.795,0,1,1,2.795,0" opacity=".7" aria-label="tyden: 34; nazev: Četník a četnice; len: 1" aria-roledescription="circle" role="graphics-symbol"/>
       <ns1:path transform="translate(121 71)" d="M3.062,0A3.062,3.062,0,1,1,-3.062,0A3.062,3.062,0,1,1,3.062,0" opacity=".7" aria-label="tyden: 20; nazev: Fantomas; len: 2" aria-roledescription="circle" role="graphics-symbol"/>
       <ns1:path transform="translate(293 214)" d="M2.795,0A2.795,2.795,0,1,1,-2.795,0A2.795,2.795,0,1,1,2.795,0" opacity=".7" aria-label="tyden: 47; nazev: Četník se žení; len: 1" aria-roledescription="circle" role="graphics-symbol"/>
       <ns1:path transform="translate(64 71)" d="M2.795,0A2.795,2.795,0,1,1,-2.795,0A2.795,2.795,0,1,1,2.795,0" opacity=".7" aria-label="tyden: 11; nazev: Fantomas; len: 1" aria-roledescription="circle" role="graphics-symbol"/>
       <ns1:path transform="translate(325 119)" d="M3.307,0A3.307,3.307,0,1,1,-3.307,0A3.307,3.307,0,1,1,3.307,0" opacity=".7" aria-label="tyden: 52; nazev: Hříšný tanec; len: 3" aria-roledescription="circle" role="graphics-symbol"/>
       <ns1:path transform="translate(172 246)" d="M3.062,0A3.062,3.062,0,1,1,-3.062,0A3.062,3.062,0,1,1,3.062,0" opacity=".7" aria-label="tyden: 28; nazev: Četník a mimozemšťané; len: 2" aria-roledescription="circle" role="graphics-symbol"/>
       <ns1:path transform="translate(96 56)" d="M2.795,0A2.795,2.795,0,1,1,-2.795,0A2.795,2.795,0,1,1,2.795,0" opacity=".7" aria-label="tyden: 16; nazev: Na samotě u lesa; len: 1" aria-roledescription="circle" role="graphics-symbol"/>
       <ns1:path transform="translate(223 167)" d="M3.062,0A3.062,3.062,0,1,1,-3.062,0A3.062,3.062,0,1,1,3.062,0" opacity=".7" aria-label="tyden: 36; nazev: Léto s kovbojem; len: 2" aria-roledescription="circle" role="graphics-symbol"/>
       <ns1:path transform="translate(108 167)" d="M3.536,0A3.536,3.536,0,1,1,-3.536,0A3.536,3.536,0,1,1,3.536,0" opacity=".7" aria-label="tyden: 18; nazev: Léto s kovbojem; len: 4" aria-roledescription="circle" role="graphics-symbol"/>
       <ns1:path transform="translate(25 7.9)" d="M3.062,0A3.062,3.062,0,1,1,-3.062,0A3.062,3.062,0,1,1,3.062,0" opacity=".7" aria-label="tyden: 5; nazev: Slunce, seno, jahody; len: 2" aria-roledescription="circle" role="graphics-symbol"/>
       <ns1:path transform="translate(38 167)" d="M3.062,0A3.062,3.062,0,1,1,-3.062,0A3.062,3.062,0,1,1,3.062,0" opacity=".7" aria-label="tyden: 7; nazev: Léto s kovbojem; len: 2" aria-roledescription="circle" role="graphics-symbol"/>
       <ns1:path transform="translate(89 56)" d="M3.062,0A3.062,3.062,0,1,1,-3.062,0A3.062,3.062,0,1,1,3.062,0" opacity=".7" aria-label="tyden: 15; nazev: Na samotě u lesa; len: 2" aria-roledescription="circle" role="graphics-symbol"/>
       <ns1:path transform="translate(159 183)" d="M3.062,0A3.062,3.062,0,1,1,-3.062,0A3.062,3.062,0,1,1,3.062,0" opacity=".7" aria-label="tyden: 26; nazev: Četník ze St. Tropez; len: 2" aria-roledescription="circle" role="graphics-symbol"/>
       <ns1:path transform="translate(38 40)" d="M2.795,0A2.795,2.795,0,1,1,-2.795,0A2.795,2.795,0,1,1,2.795,0" opacity=".7" aria-label="tyden: 7; nazev: Slunce, seno, erotika; len: 1" aria-roledescription="circle" role="graphics-symbol"/>
       <ns1:path transform="translate(147 135)" d="M2.795,0A2.795,2.795,0,1,1,-2.795,0A2.795,2.795,0,1,1,2.795,0" opacity=".7" aria-label="tyden: 24; nazev: Pomáda; len: 1" aria-roledescription="circle" role="graphics-symbol"/>
       <ns1:path transform="translate(261 167)" d="M3.062,0A3.062,3.062,0,1,1,-3.062,0A3.062,3.062,0,1,1,3.062,0" opacity=".7" aria-label="tyden: 42; nazev: Léto s kovbojem; len: 2" aria-roledescription="circle" role="graphics-symbol"/>
       <ns1:path transform="translate(319 119)" d="M2.795,0A2.795,2.795,0,1,1,-2.795,0A2.795,2.795,0,1,1,2.795,0" opacity=".7" aria-label="tyden: 51; nazev: Hříšný tanec; len: 1" aria-roledescription="circle" role="graphics-symbol"/>
       <ns1:path transform="translate(51 262)" d="M2.795,0A2.795,2.795,0,1,1,-2.795,0A2.795,2.795,0,1,1,2.795,0" opacity=".7" aria-label="tyden: 9; nazev: Četník a četnice; len: 1" aria-roledescription="circle" role="graphics-symbol"/>
       <ns1:path transform="translate(217 135)" d="M2.795,0A2.795,2.795,0,1,1,-2.795,0A2.795,2.795,0,1,1,2.795,0" opacity=".7" aria-label="tyden: 35; nazev: Pomáda; len: 1" aria-roledescription="circle" role="graphics-symbol"/>
       <ns1:path transform="translate(198 246)" d="M2.795,0A2.795,2.795,0,1,1,-2.795,0A2.795,2.795,0,1,1,2.795,0" opacity=".7" aria-label="tyden: 32; nazev: Četník a mimozemšťané; len: 1" aria-roledescription="circle" role="graphics-symbol"/>
       <ns1:path transform="translate(127 167)" d="M3.307,0A3.307,3.307,0,1,1,-3.307,0A3.307,3.307,0,1,1,3.307,0" opacity=".7" aria-label="tyden: 21; nazev: Léto s kovbojem; len: 3" aria-roledescription="circle" role="graphics-symbol"/>
       <ns1:path transform="translate(38 246)" d="M2.795,0A2.795,2.795,0,1,1,-2.795,0A2.795,2.795,0,1,1,2.795,0" opacity=".7" aria-label="tyden: 7; nazev: Četník a mimozemšťané; len: 1" aria-roledescription="circle" role="graphics-symbol"/>
       <ns1:path transform="translate(325 87)" d="M3.536,0A3.536,3.536,0,1,1,-3.536,0A3.536,3.536,0,1,1,3.536,0" opacity=".7" aria-label="tyden: 52; nazev: Fantomas se zlobí; len: 4" aria-roledescription="circle" role="graphics-symbol"/>
       <ns1:path transform="translate(178 199)" d="M2.795,0A2.795,2.795,0,1,1,-2.795,0A2.795,2.795,0,1,1,2.795,0" opacity=".7" aria-label="tyden: 29; nazev: Četník v New Yorku; len: 1" aria-roledescription="circle" role="graphics-symbol"/>
       <ns1:path transform="translate(319 87)" d="M3.062,0A3.062,3.062,0,1,1,-3.062,0A3.062,3.062,0,1,1,3.062,0" opacity=".7" aria-label="tyden: 51; nazev: Fantomas se zlobí; len: 2" aria-roledescription="circle" role="graphics-symbol"/>
       <ns1:path transform="translate(70 71)" d="M2.795,0A2.795,2.795,0,1,1,-2.795,0A2.795,2.795,0,1,1,2.795,0" opacity=".7" aria-label="tyden: 12; nazev: Fantomas; len: 1" aria-roledescription="circle" role="graphics-symbol"/>
       <ns1:path transform="translate(6.4 183)" d="M2.795,0A2.795,2.795,0,1,1,-2.795,0A2.795,2.795,0,1,1,2.795,0" opacity=".7" aria-label="tyden: 2; nazev: Četník ze St. Tropez; len: 1" aria-roledescription="circle" role="graphics-symbol"/>
       <ns1:path transform="translate(102 7.9)" d="M2.795,0A2.795,2.795,0,1,1,-2.795,0A2.795,2.795,0,1,1,2.795,0" opacity=".7" aria-label="tyden: 17; nazev: Slunce, seno, jahody; len: 1" aria-roledescription="circle" role="graphics-symbol"/>
       <ns1:path transform="translate(153 151)" d="M2.795,0A2.795,2.795,0,1,1,-2.795,0A2.795,2.795,0,1,1,2.795,0" opacity=".7" aria-label="tyden: 25; nazev: Horečka sobotní noci; len: 1" aria-roledescription="circle" role="graphics-symbol"/>
       <ns1:path transform="translate(25 214)" d="M2.795,0A2.795,2.795,0,1,1,-2.795,0A2.795,2.795,0,1,1,2.795,0" opacity=".7" aria-label="tyden: 5; nazev: Četník se žení; len: 1" aria-roledescription="circle" role="graphics-symbol"/>
       <ns1:path transform="translate(312 167)" d="M3.062,0A3.062,3.062,0,1,1,-3.062,0A3.062,3.062,0,1,1,3.062,0" opacity=".7" aria-label="tyden: 50; nazev: Léto s kovbojem; len: 2" aria-roledescription="circle" role="graphics-symbol"/>
       <ns1:path transform="translate(127 56)" d="M2.795,0A2.795,2.795,0,1,1,-2.795,0A2.795,2.795,0,1,1,2.795,0" opacity=".7" aria-label="tyden: 21; nazev: Na samotě u lesa; len: 1" aria-roledescription="circle" role="graphics-symbol"/>
       <ns1:path transform="translate(166 40)" d="M3.062,0A3.062,3.062,0,1,1,-3.062,0A3.062,3.062,0,1,1,3.062,0" opacity=".7" aria-label="tyden: 27; nazev: Slunce, seno, erotika; len: 2" aria-roledescription="circle" role="graphics-symbol"/>
       <ns1:path transform="translate(312 246)" d="M3.062,0A3.062,3.062,0,1,1,-3.062,0A3.062,3.062,0,1,1,3.062,0" opacity=".7" aria-label="tyden: 50; nazev: Četník a mimozemšťané; len: 2" aria-roledescription="circle" role="graphics-symbol"/>
       <ns1:path transform="translate(121 40)" d="M3.307,0A3.307,3.307,0,1,1,-3.307,0A3.307,3.307,0,1,1,3.307,0" opacity=".7" aria-label="tyden: 20; nazev: Slunce, seno, erotika; len: 3" aria-roledescription="circle" role="graphics-symbol"/>
       <ns1:path transform="translate(25 230)" d="M2.795,0A2.795,2.795,0,1,1,-2.795,0A2.795,2.795,0,1,1,2.795,0" opacity=".7" aria-label="tyden: 5; nazev: Četník ve výslužbě; len: 1" aria-roledescription="circle" role="graphics-symbol"/>
       <ns1:path transform="translate(45 7.9)" d="M2.795,0A2.795,2.795,0,1,1,-2.795,0A2.795,2.795,0,1,1,2.795,0" opacity=".7" aria-label="tyden: 8; nazev: Slunce, seno, jahody; len: 1" aria-roledescription="circle" role="graphics-symbol"/>
       <ns1:path transform="translate(83 56)" d="M2.795,0A2.795,2.795,0,1,1,-2.795,0A2.795,2.795,0,1,1,2.795,0" opacity=".7" aria-label="tyden: 14; nazev: Na samotě u lesa; len: 1" aria-roledescription="circle" role="graphics-symbol"/>
       <ns1:path transform="translate(229 119)" d="M2.795,0A2.795,2.795,0,1,1,-2.795,0A2.795,2.795,0,1,1,2.795,0" opacity=".7" aria-label="tyden: 37; nazev: Hříšný tanec; len: 1" aria-roledescription="circle" role="graphics-symbol"/>
       <ns1:path transform="translate(45 246)" d="M2.795,0A2.795,2.795,0,1,1,-2.795,0A2.795,2.795,0,1,1,2.795,0" opacity=".7" aria-label="tyden: 8; nazev: Četník a mimozemšťané; len: 1" aria-roledescription="circle" role="graphics-symbol"/>
       <ns1:path transform="translate(204 24)" d="M3.536,0A3.536,3.536,0,1,1,-3.536,0A3.536,3.536,0,1,1,3.536,0" opacity=".7" aria-label="tyden: 33; nazev: Slunce, seno a pár facek; len: 4" aria-roledescription="circle" role="graphics-symbol"/>
       <ns1:path transform="translate(19 214)" d="M2.795,0A2.795,2.795,0,1,1,-2.795,0A2.795,2.795,0,1,1,2.795,0" opacity=".7" aria-label="tyden: 4; nazev: Četník se žení; len: 1" aria-roledescription="circle" role="graphics-symbol"/>
       <ns1:path transform="translate(166 7.9)" d="M2.795,0A2.795,2.795,0,1,1,-2.795,0A2.795,2.795,0,1,1,2.795,0" opacity=".7" aria-label="tyden: 27; nazev: Slunce, seno, jahody; len: 1" aria-roledescription="circle" role="graphics-symbol"/>
       <ns1:path transform="translate(166 230)" d="M3.062,0A3.062,3.062,0,1,1,-3.062,0A3.062,3.062,0,1,1,3.062,0" opacity=".7" aria-label="tyden: 27; nazev: Četník ve výslužbě; len: 2" aria-roledescription="circle" role="graphics-symbol"/>
       <ns1:path transform="translate(32 40)" d="M3.062,0A3.062,3.062,0,1,1,-3.062,0A3.062,3.062,0,1,1,3.062,0" opacity=".7" aria-label="tyden: 6; nazev: Slunce, seno, erotika; len: 2" aria-roledescription="circle" role="graphics-symbol"/>
       <ns1:path transform="translate(319 7.9)" d="M3.536,0A3.536,3.536,0,1,1,-3.536,0A3.536,3.536,0,1,1,3.536,0" opacity=".7" aria-label="tyden: 51; nazev: Slunce, seno, jahody; len: 4" aria-roledescription="circle" role="graphics-symbol"/>
       <ns1:path transform="translate(0 119)" d="M2.795,0A2.795,2.795,0,1,1,-2.795,0A2.795,2.795,0,1,1,2.795,0" opacity=".7" aria-label="tyden: 1; nazev: Hříšný tanec; len: 1" aria-roledescription="circle" role="graphics-symbol"/>
       <ns1:path transform="translate(325,135)" d="M2.795,0A2.795,2.795,0,1,1,-2.795,0A2.795,2.795,0,1,1,2.795,0" opacity=".7" aria-label="tyden: 52; nazev: Pomáda; len: 1" aria-roledescription="circle" role="graphics-symbol"/>
       <ns1:path transform="translate(19 7.9)" d="M3.062,0A3.062,3.062,0,1,1,-3.062,0A3.062,3.062,0,1,1,3.062,0" opacity=".7" aria-label="tyden: 4; nazev: Slunce, seno, jahody; len: 2" aria-roledescription="circle" role="graphics-symbol"/>
       <ns1:path transform="translate(25 24)" d="M3.062,0A3.062,3.062,0,1,1,-3.062,0A3.062,3.062,0,1,1,3.062,0" opacity=".7" aria-label="tyden: 5; nazev: Slunce, seno a pár facek; len: 2" aria-roledescription="circle" role="graphics-symbol"/>
       <ns1:path transform="translate(210 87)" d="M2.795,0A2.795,2.795,0,1,1,-2.795,0A2.795,2.795,0,1,1,2.795,0" opacity=".7" aria-label="tyden: 34; nazev: Fantomas se zlobí; len: 1" aria-roledescription="circle" role="graphics-symbol"/>
       <ns1:path transform="translate(331 135)" d="M2.795,0A2.795,2.795,0,1,1,-2.795,0A2.795,2.795,0,1,1,2.795,0" opacity=".7" aria-label="tyden: 53; nazev: Pomáda; len: 1" aria-roledescription="circle" role="graphics-symbol"/>
       <ns1:path transform="translate(140 167)" d="M2.795,0A2.795,2.795,0,1,1,-2.795,0A2.795,2.795,0,1,1,2.795,0" opacity=".7" aria-label="tyden: 23; nazev: Léto s kovbojem; len: 1" aria-roledescription="circle" role="graphics-symbol"/>
       <ns1:path transform="translate(312 230)" d="M3.062,0A3.062,3.062,0,1,1,-3.062,0A3.062,3.062,0,1,1,3.062,0" opacity=".7" aria-label="tyden: 50; nazev: Četník ve výslužbě; len: 2" aria-roledescription="circle" role="graphics-symbol"/>
       <ns1:path transform="translate(108 56)" d="M2.795,0A2.795,2.795,0,1,1,-2.795,0A2.795,2.795,0,1,1,2.795,0" opacity=".7" aria-label="tyden: 18; nazev: Na samotě u lesa; len: 1" aria-roledescription="circle" role="graphics-symbol"/>
       <ns1:path transform="translate(325 40)" d="M3.953,0A3.953,3.953,0,1,1,-3.953,0A3.953,3.953,0,1,1,3.953,0" opacity=".7" aria-label="tyden: 52; nazev: Slunce, seno, erotika; len: 6" aria-roledescription="circle" role="graphics-symbol"/>
       <ns1:path transform="translate(312 262)" d="M3.307,0A3.307,3.307,0,1,1,-3.307,0A3.307,3.307,0,1,1,3.307,0" opacity=".7" aria-label="tyden: 50; nazev: Četník a četnice; len: 3" aria-roledescription="circle" role="graphics-symbol"/>
       <ns1:path transform="translate(172 24)" d="M2.795,0A2.795,2.795,0,1,1,-2.795,0A2.795,2.795,0,1,1,2.795,0" opacity=".7" aria-label="tyden: 28; nazev: Slunce, seno a pár facek; len: 1" aria-roledescription="circle" role="graphics-symbol"/>
       <ns1:path transform="translate(198 24)" d="M3.062,0A3.062,3.062,0,1,1,-3.062,0A3.062,3.062,0,1,1,3.062,0" opacity=".7" aria-label="tyden: 32; nazev: Slunce, seno a pár facek; len: 2" aria-roledescription="circle" role="graphics-symbol"/>
       <ns1:path transform="translate(312 183)" d="M3.062,0A3.062,3.062,0,1,1,-3.062,0A3.062,3.062,0,1,1,3.062,0" opacity=".7" aria-label="tyden: 50; nazev: Četník ze St. Tropez; len: 2" aria-roledescription="circle" role="graphics-symbol"/>
       <ns1:path transform="translate(191 7.9)" d="M3.062,0A3.062,3.062,0,1,1,-3.062,0A3.062,3.062,0,1,1,3.062,0" opacity=".7" aria-label="tyden: 31; nazev: Slunce, seno, jahody; len: 2" aria-roledescription="circle" role="graphics-symbol"/>
       <ns1:path transform="translate(210 103)" d="M2.795,0A2.795,2.795,0,1,1,-2.795,0A2.795,2.795,0,1,1,2.795,0" opacity=".7" aria-label="tyden: 34; nazev: Fantomas kontra Scotland Yard; len: 1" aria-roledescription="circle" role="graphics-symbol"/>
       <ns1:path transform="translate(172 262)" d="M3.062,0A3.062,3.062,0,1,1,-3.062,0A3.062,3.062,0,1,1,3.062,0" opacity=".7" aria-label="tyden: 28; nazev: Četník a četnice; len: 2" aria-roledescription="circle" role="graphics-symbol"/>
       <ns1:path transform="translate(172 183)" d="M2.795,0A2.795,2.795,0,1,1,-2.795,0A2.795,2.795,0,1,1,2.795,0" opacity=".7" aria-label="tyden: 28; nazev: Četník ze St. Tropez; len: 1" aria-roledescription="circle" role="graphics-symbol"/>
       <ns1:path transform="translate(178 87)" d="M3.062,0A3.062,3.062,0,1,1,-3.062,0A3.062,3.062,0,1,1,3.062,0" opacity=".7" aria-label="tyden: 29; nazev: Fantomas se zlobí; len: 2" aria-roledescription="circle" role="graphics-symbol"/>
       <ns1:path transform="translate(13 183)" d="M2.795,0A2.795,2.795,0,1,1,-2.795,0A2.795,2.795,0,1,1,2.795,0" opacity=".7" aria-label="tyden: 3; nazev: Četník ze St. Tropez; len: 1" aria-roledescription="circle" role="graphics-symbol"/>
       <ns1:path transform="translate(191 230)" d="M2.795,0A2.795,2.795,0,1,1,-2.795,0A2.795,2.795,0,1,1,2.795,0" opacity=".7" aria-label="tyden: 31; nazev: Četník ve výslužbě; len: 1" aria-roledescription="circle" role="graphics-symbol"/>
       <ns1:path transform="translate(13 24)" d="M3.062,0A3.062,3.062,0,1,1,-3.062,0A3.062,3.062,0,1,1,3.062,0" opacity=".7" aria-label="tyden: 3; nazev: Slunce, seno a pár facek; len: 2" aria-roledescription="circle" role="graphics-symbol"/>
       <ns1:path transform="translate(306 151)" d="M2.795,0A2.795,2.795,0,1,1,-2.795,0A2.795,2.795,0,1,1,2.795,0" opacity=".7" aria-label="tyden: 49; nazev: Horečka sobotní noci; len: 1" aria-roledescription="circle" role="graphics-symbol"/>
       <ns1:path transform="translate(242 71)" d="M2.795,0A2.795,2.795,0,1,1,-2.795,0A2.795,2.795,0,1,1,2.795,0" opacity=".7" aria-label="tyden: 39; nazev: Fantomas; len: 1" aria-roledescription="circle" role="graphics-symbol"/>
       <ns1:path transform="translate(325 71)" d="M3.536,0A3.536,3.536,0,1,1,-3.536,0A3.536,3.536,0,1,1,3.536,0" opacity=".7" aria-label="tyden: 52; nazev: Fantomas; len: 4" aria-roledescription="circle" role="graphics-symbol"/>
       <ns1:path transform="translate(287 199)" d="M2.795,0A2.795,2.795,0,1,1,-2.795,0A2.795,2.795,0,1,1,2.795,0" opacity=".7" aria-label="tyden: 46; nazev: Četník v New Yorku; len: 1" aria-roledescription="circle" role="graphics-symbol"/>
       <ns1:path transform="translate(121 56)" d="M3.062,0A3.062,3.062,0,1,1,-3.062,0A3.062,3.062,0,1,1,3.062,0" opacity=".7" aria-label="tyden: 20; nazev: Na samotě u lesa; len: 2" aria-roledescription="circle" role="graphics-symbol"/>
       <ns1:path transform="translate(217 40)" d="M2.795,0A2.795,2.795,0,1,1,-2.795,0A2.795,2.795,0,1,1,2.795,0" opacity=".7" aria-label="tyden: 35; nazev: Slunce, seno, erotika; len: 1" aria-roledescription="circle" role="graphics-symbol"/>
       <ns1:path transform="translate(108 24)" d="M2.795,0A2.795,2.795,0,1,1,-2.795,0A2.795,2.795,0,1,1,2.795,0" opacity=".7" aria-label="tyden: 18; nazev: Slunce, seno a pár facek; len: 1" aria-roledescription="circle" role="graphics-symbol"/>
       <ns1:path transform="translate(70 87)" d="M2.795,0A2.795,2.795,0,1,1,-2.795,0A2.795,2.795,0,1,1,2.795,0" opacity=".7" aria-label="tyden: 12; nazev: Fantomas se zlobí; len: 1" aria-roledescription="circle" role="graphics-symbol"/>
       <ns1:path transform="translate(32 230)" d="M2.795,0A2.795,2.795,0,1,1,-2.795,0A2.795,2.795,0,1,1,2.795,0" opacity=".7" aria-label="tyden: 6; nazev: Četník ve výslužbě; len: 1" aria-roledescription="circle" role="graphics-symbol"/>
       <ns1:path transform="translate(147 167)" d="M3.307,0A3.307,3.307,0,1,1,-3.307,0A3.307,3.307,0,1,1,3.307,0" opacity=".7" aria-label="tyden: 24; nazev: Léto s kovbojem; len: 3" aria-roledescription="circle" role="graphics-symbol"/>
       <ns1:path transform="translate(159 199)" d="M3.062,0A3.062,3.062,0,1,1,-3.062,0A3.062,3.062,0,1,1,3.062,0" opacity=".7" aria-label="tyden: 26; nazev: Četník v New Yorku; len: 2" aria-roledescription="circle" role="graphics-symbol"/>
       <ns1:path transform="translate(325 7.9)" d="M3.062,0A3.062,3.062,0,1,1,-3.062,0A3.062,3.062,0,1,1,3.062,0" opacity=".7" aria-label="tyden: 52; nazev: Slunce, seno, jahody; len: 2" aria-roledescription="circle" role="graphics-symbol"/>
       <ns1:path transform="translate(255 103)" d="M2.795,0A2.795,2.795,0,1,1,-2.795,0A2.795,2.795,0,1,1,2.795,0" opacity=".7" aria-label="tyden: 41; nazev: Fantomas kontra Scotland Yard; len: 1" aria-roledescription="circle" role="graphics-symbol"/>
       <ns1:path transform="translate(274 56)" d="M2.795,0A2.795,2.795,0,1,1,-2.795,0A2.795,2.795,0,1,1,2.795,0" opacity=".7" aria-label="tyden: 44; nazev: Na samotě u lesa; len: 1" aria-roledescription="circle" role="graphics-symbol"/>
       <ns1:path transform="translate(89 103)" d="M2.795,0A2.795,2.795,0,1,1,-2.795,0A2.795,2.795,0,1,1,2.795,0" opacity=".7" aria-label="tyden: 15; nazev: Fantomas kontra Scotland Yard; len: 1" aria-roledescription="circle" role="graphics-symbol"/>
       <ns1:path transform="translate(127 87)" d="M3.062,0A3.062,3.062,0,1,1,-3.062,0A3.062,3.062,0,1,1,3.062,0" opacity=".7" aria-label="tyden: 21; nazev: Fantomas se zlobí; len: 2" aria-roledescription="circle" role="graphics-symbol"/>
       <ns1:path transform="translate(38 199)" d="M2.795,0A2.795,2.795,0,1,1,-2.795,0A2.795,2.795,0,1,1,2.795,0" opacity=".7" aria-label="tyden: 7; nazev: Četník v New Yorku; len: 1" aria-roledescription="circle" role="graphics-symbol"/>
       <ns1:path transform="translate(32 24)" d="M3.062,0A3.062,3.062,0,1,1,-3.062,0A3.062,3.062,0,1,1,3.062,0" opacity=".7" aria-label="tyden: 6; nazev: Slunce, seno a pár facek; len: 2" aria-roledescription="circle" role="graphics-symbol"/>
       <ns1:path transform="translate(6.4 7.9)" d="M3.062,0A3.062,3.062,0,1,1,-3.062,0A3.062,3.062,0,1,1,3.062,0" opacity=".7" aria-label="tyden: 2; nazev: Slunce, seno, jahody; len: 2" aria-roledescription="circle" role="graphics-symbol"/>
       <ns1:path transform="translate(76 56)" d="M2.795,0A2.795,2.795,0,1,1,-2.795,0A2.795,2.795,0,1,1,2.795,0" opacity=".7" aria-label="tyden: 13; nazev: Na samotě u lesa; len: 1" aria-roledescription="circle" role="graphics-symbol"/>
       <ns1:path transform="translate(115 167)" d="M3.062,0A3.062,3.062,0,1,1,-3.062,0A3.062,3.062,0,1,1,3.062,0" opacity=".7" aria-label="tyden: 19; nazev: Léto s kovbojem; len: 2" aria-roledescription="circle" role="graphics-symbol"/>
       <ns1:path transform="translate(153 167)" d="M2.795,0A2.795,2.795,0,1,1,-2.795,0A2.795,2.795,0,1,1,2.795,0" opacity=".7" aria-label="tyden: 25; nazev: Léto s kovbojem; len: 1" aria-roledescription="circle" role="graphics-symbol"/>
       <ns1:path transform="translate(121 7.9)" d="M3.062,0A3.062,3.062,0,1,1,-3.062,0A3.062,3.062,0,1,1,3.062,0" opacity=".7" aria-label="tyden: 20; nazev: Slunce, seno, jahody; len: 2" aria-roledescription="circle" role="graphics-symbol"/>
       <ns1:path transform="translate(83 199)" d="M2.795,0A2.795,2.795,0,1,1,-2.795,0A2.795,2.795,0,1,1,2.795,0" opacity=".7" aria-label="tyden: 14; nazev: Četník v New Yorku; len: 1" aria-roledescription="circle" role="graphics-symbol"/>
       <ns1:path transform="translate(45 262)" d="M2.795,0A2.795,2.795,0,1,1,-2.795,0A2.795,2.795,0,1,1,2.795,0" opacity=".7" aria-label="tyden: 8; nazev: Četník a četnice; len: 1" aria-roledescription="circle" role="graphics-symbol"/>
       <ns1:path transform="translate(134 40)" d="M3.062,0A3.062,3.062,0,1,1,-3.062,0A3.062,3.062,0,1,1,3.062,0" opacity=".7" aria-label="tyden: 22; nazev: Slunce, seno, erotika; len: 2" aria-roledescription="circle" role="graphics-symbol"/>
       <ns1:path transform="translate(0 103)" d="M2.795,0A2.795,2.795,0,1,1,-2.795,0A2.795,2.795,0,1,1,2.795,0" opacity=".7" aria-label="tyden: 1; nazev: Fantomas kontra Scotland Yard; len: 1" aria-roledescription="circle" role="graphics-symbol"/>
       <ns1:path transform="translate(51 24)" d="M2.795,0A2.795,2.795,0,1,1,-2.795,0A2.795,2.795,0,1,1,2.795,0" opacity=".7" aria-label="tyden: 9; nazev: Slunce, seno a pár facek; len: 1" aria-roledescription="circle" role="graphics-symbol"/>
       <ns1:path transform="translate(242 167)" d="M2.795,0A2.795,2.795,0,1,1,-2.795,0A2.795,2.795,0,1,1,2.795,0" opacity=".7" aria-label="tyden: 39; nazev: Léto s kovbojem; len: 1" aria-roledescription="circle" role="graphics-symbol"/>
       <ns1:path transform="translate(306 246)" d="M2.795,0A2.795,2.795,0,1,1,-2.795,0A2.795,2.795,0,1,1,2.795,0" opacity=".7" aria-label="tyden: 49; nazev: Četník a mimozemšťané; len: 1" aria-roledescription="circle" role="graphics-symbol"/>
       <ns1:path transform="translate(319 56)" d="M3.307,0A3.307,3.307,0,1,1,-3.307,0A3.307,3.307,0,1,1,3.307,0" opacity=".7" aria-label="tyden: 51; nazev: Na samotě u lesa; len: 3" aria-roledescription="circle" role="graphics-symbol"/>
       <ns1:path transform="translate(293 167)" d="M3.307,0A3.307,3.307,0,1,1,-3.307,0A3.307,3.307,0,1,1,3.307,0" opacity=".7" aria-label="tyden: 47; nazev: Léto s kovbojem; len: 3" aria-roledescription="circle" role="graphics-symbol"/>
       <ns1:path transform="translate(159 119)" d="M2.795,0A2.795,2.795,0,1,1,-2.795,0A2.795,2.795,0,1,1,2.795,0" opacity=".7" aria-label="tyden: 26; nazev: Hříšný tanec; len: 1" aria-roledescription="circle" role="graphics-symbol"/>
       <ns1:path transform="translate(38 119)" d="M2.795,0A2.795,2.795,0,1,1,-2.795,0A2.795,2.795,0,1,1,2.795,0" opacity=".7" aria-label="tyden: 7; nazev: Hříšný tanec; len: 1" aria-roledescription="circle" role="graphics-symbol"/>
      </ns1:g>
      <ns1:g class="mark-group role-title">
       <ns1:g transform="translate(-130 -50)" pointer-events="none">
        <ns1:path class="background" d="M0,0h0v0h0Z" aria-hidden="true"/>
        <ns1:g>
         <ns1:g class="mark-text role-title-text" aria-label="Title text 'Zdánlivě letní filmy'" aria-roledescription="title" role="graphics-symbol">
          <ns1:text transform="translate(0,-1)" fill="#292829" font-family="'Noticia Text', Noticia, serif" font-size="12px" font-weight="bold">Zdánlivě letní filmy</ns1:text>
         </ns1:g>
         <ns1:g class="mark-text role-title-subtitle" aria-label="Subtitle text 'Snímky s letní tematikou nebo označované za letní klasiky v komentářích na ČSFD, které však na ČT1, ČT2, Nově a Primě nepatří jednoznačně do prázdninových schémat. Opět jde o přehled repríz v letech 2015 až 2024.'" aria-roledescription="subtitle" role="graphics-symbol">
          <ns1:text transform="translate(0 18)" fill="#292829" font-family="'Noticia Text', Noticia, serif" font-size="9.3px">
           <ns1:tspan>Snímky s letní tematikou nebo označované za letní klasiky v komentářích na ČSFD, které však na ČT1, ČT2,</ns1:tspan>
           <ns1:tspan x="0" dy="15">Nově a Primě nepatří jednoznačně do prázdninových schémat. Opět jde o přehled repríz v letech 2015 až 2024.</ns1:tspan>
          </ns1:text>
         </ns1:g>
        </ns1:g>
        <ns1:path class="foreground" d="" display="none" aria-hidden="true"/>
       </ns1:g>
      </ns1:g>
     </ns1:g>
     <ns1:path class="foreground" d="" display="none" aria-hidden="true"/>
    </ns1:g>
   </ns1:g>
  </ns1:g>
 </g>
 <g transform="translate(283,377)">
  <ns0:rect width="200" height="17" fill="white" xmlns:ns0="http://www.w3.org/2000/svg"/>
  <ns1:g transform="translate(0)" fill="none" stroke-miterlimit="10" xmlns:ns1="http://www.w3.org/2000/svg">
   <ns1:g class="mark-group role-frame root" aria-roledescription="group mark container" role="graphics-object">
    <ns1:g transform="translate(0)">
     <ns1:path class="background" d="M0.5,0.5h200v15h-200Z" aria-hidden="true"/>
     <ns1:g>
      <ns1:g class="mark-text role-mark marks" aria-roledescription="text mark container" role="graphics-object">
       <ns1:text transform="translate(195 14)" fill="#292829" font-family="Asap" font-size="8px" text-anchor="end" aria-label="text: vizualizace: iROZHLAS.cz | televizní programy: fdb.cz" aria-roledescription="text mark" role="graphics-symbol">vizualizace: iROZHLAS.cz | televizní programy: fdb.cz</ns1:text>
      </ns1:g>
     </ns1:g>
     <ns1:path class="foreground" d="" display="none" aria-hidden="true"/>
    </ns1:g>
   </ns1:g>
  </ns1:g>
 </g>
</svg>